<?xml version="1.0" encoding="UTF-8" standalone="no"?>
<svg
   xmlns:dc="http://purl.org/dc/elements/1.1/"
   xmlns:cc="http://creativecommons.org/ns#"
   xmlns:rdf="http://www.w3.org/1999/02/22-rdf-syntax-ns#"
   xmlns:svg="http://www.w3.org/2000/svg"
   xmlns="http://www.w3.org/2000/svg"
   xmlns:sodipodi="http://sodipodi.sourceforge.net/DTD/sodipodi-0.dtd"
   xmlns:inkscape="http://www.inkscape.org/namespaces/inkscape"
   height="24px"
   viewBox="0 -960 960 960"
   width="24px"
   fill="#1f1f1f"
   version="1.1"
   id="svg4"
   sodipodi:docname="lune.svg"
   inkscape:version="0.92.3 (2405546, 2018-03-11)">
  <metadata
     id="metadata10">
    <rdf:RDF>
      <cc:Work
         rdf:about="">
        <dc:format>image/svg+xml</dc:format>
        <dc:type
           rdf:resource="http://purl.org/dc/dcmitype/StillImage" />
      </cc:Work>
    </rdf:RDF>
  </metadata>
  <defs
     id="defs8" />
  <sodipodi:namedview
     pagecolor="#ffffff"
     bordercolor="#666666"
     borderopacity="1"
     objecttolerance="10"
     gridtolerance="10"
     guidetolerance="10"
     inkscape:pageopacity="0"
     inkscape:pageshadow="2"
     inkscape:window-width="1920"
     inkscape:window-height="1001"
     id="namedview6"
     showgrid="false"
     inkscape:zoom="9.8333333"
     inkscape:cx="-4.7288136"
     inkscape:cy="12"
     inkscape:window-x="-9"
     inkscape:window-y="-9"
     inkscape:window-maximized="1"
     inkscape:current-layer="svg4" />
  <path
     d="M396-396q-32-32-58.5-67T289-537q-5 14-6.5 28.5T281-480q0 83 58 141t141 58q14 0 28.5-2t28.5-6q-39-22-74-48.5T396-396Zm57-56q51 51 114 87.5T702-308q-40 51-98 79.5T481-200q-117 0-198.5-81.5T201-480q0-65 28.5-123t79.5-98q20 72 56.5 135T453-452Zm290 72q-20-5-39.5-11T665-405q8-18 11.5-36.5T680-480q0-83-58.5-141.5T480-680q-20 0-38.5 3.5T405-665q-8-19-13.5-38T381-742q24-9 49-13.5t51-4.5q117 0 198.5 81.5T761-480q0 26-4.5 51T743-380ZM440-840v-120h80v120h-80Zm0 840v-120h80V0h-80Zm323-706-57-57 85-84 57 56-85 85ZM169-113l-57-56 85-85 57 57-85 84Zm671-327v-80h120v80H840ZM0-440v-80h120v80H0Zm791 328-85-85 57-57 84 85-56 57ZM197-706l-84-85 56-57 85 85-57 57Zm199 310Z"
     id="path2"
     style="fill:#3134b7;fill-opacity:1" />
</svg>
